<svg width="47" height="48" viewBox="0 0 47 48" fill="none" xmlns="http://www.w3.org/2000/svg">
<path d="M44.7057 14.605C43.8342 12.569 42.6807 10.6715 41.2805 8.97092C39.2108 6.38193 36.6278 4.2701 33.7016 2.77446C30.7755 1.27883 27.5723 0.433275 24.3033 0.293455C21.0342 0.153634 17.7732 0.722714 14.7349 1.96327C11.6966 3.2038 8.94994 5.08768 6.67563 7.49089C4.4013 9.89408 2.65092 12.7621 1.53968 15.9063C0.428449 19.0504 -0.018459 22.3993 0.228398 25.7326C0.475272 29.066 1.41028 32.308 2.97191 35.2455C4.53355 38.1831 6.6864 40.7494 9.28876 42.7756C10.9586 44.1017 12.8037 45.1797 14.7691 45.9776C17.5247 47.1313 20.474 47.7255 23.4521 47.7273C29.5994 47.7135 35.4905 45.21 39.8342 40.7657C44.1777 36.3214 46.6194 30.299 46.6239 24.0185C46.6283 20.7789 45.9753 17.5736 44.7057 14.605ZM23.435 5.10402C26.1094 5.10374 28.7515 5.70092 31.176 6.85374C30.5848 7.11475 29.9632 7.29705 29.3264 7.39617C27.2312 7.70603 25.2903 8.69984 23.7933 10.2293C22.2963 11.7587 21.3235 13.7417 21.0202 15.8823C20.8871 17.0828 20.3526 18.1997 19.5071 19.0444C18.6616 19.8892 17.5568 20.4099 16.379 20.5191C14.2838 20.829 12.3428 21.8228 10.8458 23.3522C9.34884 24.8817 8.37609 26.8646 8.0728 29.0052C7.97011 30.1468 7.4934 31.2195 6.71983 32.0498C5.3851 29.1685 4.78551 25.9889 4.97684 22.8072C5.16818 19.6255 6.14422 16.5449 7.81414 13.8521C9.48405 11.1595 11.7936 8.94207 14.5278 7.40639C17.262 5.87071 20.3321 5.06666 23.4521 5.06903L23.435 5.10402ZM9.27163 36.2666C9.47715 36.0741 9.68266 35.8992 9.88818 35.6892C11.4118 34.1801 12.3898 32.1878 12.6626 30.0376C12.7732 28.8289 13.3014 27.7 14.1526 26.8531C14.9717 25.9821 16.0741 25.4468 17.2524 25.3483C19.3476 25.0385 21.2886 24.0446 22.7856 22.5152C24.2826 20.9857 25.2553 19.0028 25.5586 16.8622C25.6328 15.598 26.1637 14.407 27.0486 13.5202C27.888 12.6661 29.0008 12.1503 30.1827 12.0679C32.1075 11.7974 33.9027 10.9231 35.3206 9.56583C36.9351 10.9342 38.3028 12.5804 39.3624 14.4301C39.2973 14.5198 39.2226 14.6021 39.1397 14.675C38.3223 15.5537 37.2212 16.1007 36.0399 16.2148C33.9424 16.5192 31.9986 17.5113 30.5006 19.0416C29.0027 20.5721 28.0317 22.558 27.7337 24.7009C27.6129 25.9054 27.0883 27.0303 26.2488 27.8849C25.4091 28.7396 24.3062 29.2714 23.1267 29.3902C21.0253 29.6976 19.0772 30.6895 17.5715 32.2183C16.0659 33.7472 15.0831 35.7314 14.7691 37.8763C14.677 38.7314 14.3894 39.5526 13.9299 40.2735C12.1728 39.2075 10.5991 37.8539 9.27163 36.2666ZM23.435 43.0205C21.6972 43.0225 19.9676 42.775 18.2971 42.2856C18.8686 41.1973 19.2401 40.0112 19.3932 38.7862C19.5133 37.5843 20.0354 36.4615 20.8715 35.6073C21.7076 34.7531 22.8066 34.2196 23.983 34.0969C26.0813 33.7906 28.0262 32.7983 29.5266 31.2685C31.0269 29.7389 32.0022 27.7538 32.3064 25.6108C32.4264 24.4089 32.9486 23.2861 33.7847 22.4319C34.6208 21.5777 35.7198 21.0442 36.8962 20.9215C38.4752 20.7117 39.9803 20.1111 41.2805 19.1718C42.0025 21.9677 42.088 24.8953 41.5305 27.7302C40.9731 30.5651 39.7873 33.2321 38.0644 35.5261C36.3415 37.82 34.1272 39.6805 31.5912 40.9644C29.0553 42.2484 26.2653 42.9218 23.435 42.933V43.0205Z" fill="#FF5C00"/>
</svg>
